<svg id="Layer_1" data-name="Layer 1" xmlns="http://www.w3.org/2000/svg" viewBox="0 0 449.28 93.21"><defs><style>.cls-1{fill:#fff;}.cls-2{fill:#2f7c17;}</style></defs><g id="Group_149" data-name="Group 149"><path id="Path_8874" data-name="Path 8874" class="cls-1" d="M174.08,112.21H158.92a1.06,1.06,0,0,1-1.06-1.07V46a1.07,1.07,0,0,0-1.06-1.07H134.14a1.05,1.05,0,0,1-1.06-1.06V31.57a1.05,1.05,0,0,1,1.06-1.06h64.71a1.06,1.06,0,0,1,1.07,1.06V43.86a1.06,1.06,0,0,1-1.07,1.06H176.2A1.06,1.06,0,0,0,175.14,46h0v65.16a1.08,1.08,0,0,1-1.06,1.06" transform="translate(-13.73 -24.75)"/><path id="Path_8875" data-name="Path 8875" class="cls-1" d="M280.27,70.56q0,20.7-11.78,31.18c-7.86,7-25.26,10.47-39.3,10.47H207.38a1.31,1.31,0,0,1-1.3-1.3V31.81a1.3,1.3,0,0,1,1.3-1.3h24.33c8.54,0,22.42,1.52,28.71,4.57a33.5,33.5,0,0,1,14.65,13.5q5.21,8.93,5.2,22m-18,.46q0-13.5-5.95-19.91c-4-4.27-16.18-6.4-23.73-6.4h-8a1.3,1.3,0,0,0-1.3,1.3V96.6a1.31,1.31,0,0,0,1.3,1.31h6.13c16.71,0,31.52-9,31.52-26.9" transform="translate(-13.73 -24.75)"/><path id="Path_8876" data-name="Path 8876" class="cls-1" d="M393.46,31.32l-22.2,80.42a.63.63,0,0,1-.61.47H352a.65.65,0,0,1-.63-.48l-11-42.43c-.23-.84-.52-2.1-.86-3.78S338.77,62,338.35,60s-.8-3.85-1.15-5.61a.64.64,0,0,0-.75-.51.63.63,0,0,0-.5.51q-.52,2.64-1.09,5.55c-.38,1.94-.76,3.78-1.15,5.49s-.68,3-.91,4l-10.86,42.32a.64.64,0,0,1-.62.48h-18.7a.64.64,0,0,1-.62-.47L279.81,31.32a.65.65,0,0,1,.45-.79.47.47,0,0,1,.17,0h15.72a.63.63,0,0,1,.61.47l12,44.15q.69,2.64,1.49,6.64c.54,2.67,1,5.34,1.49,8,.14.83.27,1.61.39,2.36a.65.65,0,0,0,.74.53.66.66,0,0,0,.53-.53c.12-.77.25-1.57.4-2.41.46-2.64.93-5.19,1.43-7.67s.93-4.41,1.31-5.78L328.33,31a.63.63,0,0,1,.62-.48h15.37a.63.63,0,0,1,.62.48l11.77,45.29c.39,1.37.82,3.3,1.32,5.78s1,5,1.43,7.72c.14.83.27,1.61.39,2.36a.64.64,0,0,0,1.27,0c.12-.77.25-1.58.4-2.42q.69-3.94,1.54-7.9c.57-2.63,1.05-4.86,1.43-6.67,0,0,0,0,0,0L376.5,31a.63.63,0,0,1,.62-.47h15.72a.64.64,0,0,1,.64.64,1,1,0,0,1,0,.17" transform="translate(-13.73 -24.75)"/><path id="Path_8877" data-name="Path 8877" class="cls-2" d="M421,30.51q16.71,0,24.66,6.06t8,18.42a21.37,21.37,0,0,1-2.12,9.79,22.1,22.1,0,0,1-5.61,7.09A33,33,0,0,1,439.56,76a1.14,1.14,0,0,0-.5,1.53.86.86,0,0,0,.1.16l23.63,32.66a1.14,1.14,0,0,1-.25,1.6,1.17,1.17,0,0,1-.67.22H445.49a1.17,1.17,0,0,1-.95-.5L424.05,81.36a1.15,1.15,0,0,0-.95-.5h-7.51A1.15,1.15,0,0,0,414.44,82v29.06a1.14,1.14,0,0,1-1.14,1.15h-15a1.14,1.14,0,0,1-1.15-1.15V31.65a1.14,1.14,0,0,1,1.15-1.14ZM419.71,44.7h-4.12a1.15,1.15,0,0,0-1.15,1.14v19.8a1.15,1.15,0,0,0,1.15,1.14h4.46q8.58,0,12.3-2.86t3.72-8.47q0-5.84-4-8.3T419.71,44.7" transform="translate(-13.73 -24.75)"/></g><path id="Icon_metro-earth2" data-name="Icon metro-earth2" class="cls-1" d="M60.44,118a46.61,46.61,0,1,1,46.71-46.6A46.65,46.65,0,0,1,60.44,118ZM98.3,67.45a.3.3,0,0,0,.15-.2,1.43,1.43,0,0,0,.45.82s0,0,0,.06l.06,0a1.47,1.47,0,0,0,.89.34,1.45,1.45,0,0,0,1.22-.71l.06.07a.71.71,0,0,0,0-.14,1.46,1.46,0,0,0,.2-.68,1.48,1.48,0,0,0-1.46-1.46,1.45,1.45,0,0,0-1.21.68s0,0,0,0a1.34,1.34,0,0,0-.22-.7V67A1.46,1.46,0,0,1,98.3,67.45ZM31.22,67c0-.44-1-1.18-1.26-1.18,0-.08-.41-1-.56-1,0-.3-1.07-1.66-1.24-1.07-.11.39.81.91.81,1.35.18,0,.9,1.37,1,1.61,1.59,2.67-1.18.84-1.18-.28a3.76,3.76,0,0,1-.91-1.89,6.18,6.18,0,0,1-.77-1.46c0-.85-.47-1.26-1.4-1.26-.05-.08-.83-1.19-.85-1.19a3,3,0,0,0-1-1.6,11.74,11.74,0,0,1-.21-2.37,7.78,7.78,0,0,0-.31-2.49,40.6,40.6,0,0,0,19.65,54c1.1.52,2.22,1,3.36,1.39,0-1.44.13-3.17.46-3.17,0-.22.18-1.12.35-1.12,0-.63,0-1.26,0-1.88-.21-.42.27-1,.42-1.61.81-.4.24-4.46.85-4.46,0-2,.45-3.22.13-5.1.16,0-.92-1.14-.91-1.12-1,0-1.75-1.65-1.75-2.37a4.34,4.34,0,0,1-.35-1.18c.24,0-1.48-2.5-1.48-2.45-.9-.5,0-1.2.14-2-.78-.26,0-2.37.35-2.37a.68.68,0,0,1,.43-.56c.17.7,1-.34.35-.34,0-.46,0-1.45,0-1.68,0-.71-.63-2.1-1.12-.63-.53-.26-1.85-.21-2-1,.08-.41-.75-1.25-1.05-1.4.28-.71-1.42-1.67-2-1.67,0-.16-.33-.09-.42-.28-.63,0-.77-.84-1.48-.84s-1.63-.56-2.38-.56c-.25-.5-1.42-.3-1.69-.84-.61,0-.85-1.15-.87-1.58S32,67,31.22,67ZM90.36,43.64a.19.19,0,0,1,0,.07.37.37,0,0,1,.14.07Zm.88,1a1,1,0,0,1,.15.5c.1,0,.15-.05.24-.07C91.5,44.88,91.36,44.75,91.24,44.6Zm2.53,13.27c0-1.25-1-1-1.4-1.74-.36,0-.49-.28-1-.28a.6.6,0,0,0-.75.22c-.75.29-.3-.36-.86-.36,0-.72-.26-.92-1.06-.84-.45,1-1.15,1.64-1,2.79.34.08.28.16.21.49.45,0,3.16-.14,3.16-.42.09,0,.56,1,.56.14.38,0,.58.88,1.48.63,0,.18,1.5-.63.69-.63Zm.15,14.87c0-.26-.13-.37-.28-.63.4,0-1.27-3.08-1.27-3.56a2.8,2.8,0,0,1-.63-1.33,3.16,3.16,0,0,1-.84-1.39,5,5,0,0,1-1.34-1.75c.51.06,1.26.16,1.26-.49-.33,0-.39-.41-.06-.41-.11-.43.23-.74.3-1.07a7.79,7.79,0,0,0,.26-1.52,2.37,2.37,0,0,0-1,.21c0,.29-.86-.07-1-.07-.19-.36-1.52.48-1.89-.28-.61-.54-.44-1-.64-1.73-.1-.39-.63-.41-1-.48-.91-.17-.25,1.09-.3,1.38.56,0-.35.69-.35,1-1-.2-.63-1.25-1.19-1.53-.17-.28,0-.49-.43-.49,0-.37.2-1-.21-1.19,0-.18-.79-.25-.91-.48-.5,0-1.67-1.9-2-1.26-.22.41.19.51.28.84.73-.14.66,1.19,1.54,1a2.6,2.6,0,0,0,.07.56c.66-.15.58.49.91.49-.24.32-1-.51-.79.19.12.4.05.74-.47,1.14,0-.44,0-1.61-.49-1.61-.31-.62-1.23-.47-1.62-1-.32,0-.44-1-1-1a1.1,1.1,0,0,1-.63.28c-.3.59-2,.06-2,.14s-.93,2.22-1,2.51c-.11.63-.61.64-.76,1.23-.08.3-1.91.16-1.91.38a1.85,1.85,0,0,1-1.47-1.68,12.53,12.53,0,0,1,.28-2.51c.16,0,.19.1.28.28.49-.18,1.62.12,1.62-.42.47,0,.61.2.42.56.44.08,1.19.19,1.19-.42-.26,0-.28,0-.28-.28.84-.87-.63-1.66-.63-2.09-.3-.1-.91-.74-.47-.5s1.69.62,1.17-.27a.09.09,0,0,0,.06-.07c.15.11.78.75.78.15.17,0,.84-.42.28-.42.05-.32,0-.58.07-.77.89.47.39-.33.84-.63,0,.58.48-.28.77-.28.35-.51,1.14-.12,1.34-.7-.43-.14-.36-1.21-.36-1.6.52.08,1.1-.7,1.18-.16,0,.21,0,.78.16.86.76.4.56-.23.56-.63-.26,0-.6-.9-.63-1.33-.21,0-.55.12-.64.28-.76,0-1.28-.28-1.89-.28a10.45,10.45,0,0,1-.7-.91c-.43-.73.43-.52.56-.55,0-.69,2.89-.57,3-1.68-1,0,1-1.61,1-1.6.65-.55,1-1,1.79-1.09.34,0,4.1-1.06,4.1-.59l1.18,0a40.77,40.77,0,0,0-54.86-.63,1,1,0,0,1,.11.38c.39,0,.93-.27,1.06.22A2.1,2.1,0,0,1,34,41.4c.13,1.09-.48.42-1,.42a1.91,1.91,0,0,0-.47-.18c-.15.15-.32.29-.47.43,0,0,0,0,0,.1s.08.26.54.41a11.11,11.11,0,0,0,1.71.38,5.29,5.29,0,0,0,1.12-.09c0-.06,1-.48.28-.48.09-.39-.08-.48-.49-.49,0-.41,1-.14,1.4-.14.31-.51,0-.45.28-.91s.7-.08.91-.62a1,1,0,0,1,.71.68c.25.21,1.54,2.11,1.54.77.46.15.7,1,.7,1.47.84-.12.91-.75.91-1.4.2,0-.07-.31-.07-.42.32-.11.71.3.71-.14.13,0,.14.14.14.28.43.09.71,0,1,.05s.09,1,0,1.35-.92.43-.92.63c-.93.69,1.08,1,1.4,1.46a4,4,0,0,1-.91-.13c-.46,0-1.56.48-2,.13.56,0,.75-.68.84-1.32a1,1,0,0,0-1.28.62v0c-.25.86-.82,0-1.11.54-.11,0-1.12.51-1.12.35-1.14.16-.84,1.12-.84,2.16.46.27,1.37,1.05,1.33,1.47,1,.18,1.4.29,2.32.42a1.06,1.06,0,0,0,.56.34c0,.6.55.5,1,.5,0-.77.9.63,1,.9-.12,0,.21.79.28,1-.14,0-.18,0-.14.14.45.17,1.15.12,1.27-.35-.43,0-.29-.48-.29-.76a.53.53,0,0,1-.24-.71.55.55,0,0,1,.31-.27c0,.4,1.45-.25.63-.55a1.55,1.55,0,0,0,0-1.52c-.2-.25-.46,0-.57-.37.55-.14.15-1.18.14-1.67.18-.07.63.11.63,0,.54,0,1.44.68,1.76-.15.9.41.18.8,1.12.49a4.12,4.12,0,0,0,1.2,1.26c0,.05,0,.35.21.35,0,.22-.15-.13-.15.27.13,0,.85.15.85-.13.46,0,.77-.56.77-1,.28-.18.78,1.54,1.12,1.54.25.39,1.06,1,1.06,1.32.16.18.34.13.34.63.22,0,.64-.83.64-.07a1.34,1.34,0,0,1,.84.77c-.5,0,0,.49-.29.49,0,.48-1.08.1-1.32.07-.34,1.5-2.37.42-3.59.81a4.14,4.14,0,0,0-2,2.33c.78,0,1.13-.68,1.82-.91.57,0,.68-.34,1.2-.49,0,.15.14.07.14.21-1,0-.39.65-.1,1.12a1.2,1.2,0,0,0,.62.51,2.79,2.79,0,0,0-.24.53h0c-.19.07-.56.2-.63.35-1.13.13-.57,0-.5-.22,0,.1.45,0,.43,0-.06-.34-.17-.29-.07-.48-.61,0-.91.28-1.4.28-.09.16-.51.55-.7.55a3.35,3.35,0,0,1-.85,1.47c0-.11-1,.63-.91.63-.22.35-.46.34-.56.9a4.42,4.42,0,0,0-.35,1.12c-.44.29-.6,1.46-1.34,1.46-.45.9-1.26.78-1.26,2a6.15,6.15,0,0,1,.46,1.91c.11.49.27,1-.39,1,0-.07-.51-.77-.42-.77a4.46,4.46,0,0,0-.56-1.5c-.28-.39-.79.06-1.2-.11-.17-.34-1.33-.42-1.75-.42.07.26.26.34.28.63a1.59,1.59,0,0,1-.9.25c-.61-.08-.53-.56-1.2-.49a2,2,0,0,0-1.83,2.06,6.11,6.11,0,0,0,0,2.09c0,.59.49,1,.49,1.47.48,0,1,1,1.48,1,0,.37-.24.43.56.42,0,0,.43-.27.49-.55-.55-.14,0-.84.35-1,0,.5.7-.16.7-.21l.77-.28c0-.56.53.06.14.28-.38,0-.35.63-.56.63-.09.45-.27.84-.37,1.28s.3.59.16,1.1a9.54,9.54,0,0,0,1.69,0,.46.46,0,0,0-.08-.28c.82,0,.08,1.53.57,1.53,0,.58.28,1,.28,1.4a.92.92,0,0,1,.49,1c.47.06,1.47.18,1.47-.42.71,0,.76.48.71,1,1.41,0,.53-1.4,1.12-1.4.05-.23.15-.27.28-.12.29.16.51-.29.74-.43a2.75,2.75,0,0,1,.38-.2c.2.12.22.09.3.22a2.12,2.12,0,0,0,1.11-.44c.5.06.34,1.14,1.29,1.21a3.38,3.38,0,0,0,1.58-.09c.08-.06.38.19.42.29.31,0,.29.27.42.27a.12.12,0,0,0,.15.06c0,.12.29.16.42.49s.63.36.63.56c.45.22-.16.29.54.49a5.1,5.1,0,0,0,1.15.35c.13-.5.55.06.77.06.11.23.17.06.28.28.65.54.22.33.49.91.31.2.41.91.49,1.32-.25,0-.07,1-.07,1-.3,0,.78.58.78-.14.44.07.73.56,1,.56-.18.42.49.74.49.07.67.06.49,1.06.42,1.39.5,0,.64-.27,1.06-.32a2.85,2.85,0,0,1,4.46,2.41h0a2.88,2.88,0,0,1-2.48,2.83,4.51,4.51,0,0,1-.37.39c0,.14,0,1.53-.07,1.53,0,.28-.21,1.82-.42,1.82,0,.79-.52.93-.7,1.68-.43.31-1.58.83-1.76,1.18-.33,0-.57.28-.91.28,0,.1-.76.77-.63.77-.05.49,0,1.66-.23,2s-.44.19-.33.53c-.39,0,0,.27-.59.27a1.38,1.38,0,0,0-1.11,1,1.57,1.57,0,0,1-.68,1.35c0,.2-.91.26-.91.77a4.5,4.5,0,0,1,0,1,1.67,1.67,0,0,0-1.05.49c-.92,0-.81.09-1.4.49,0,.12-.09.56-.21.56,0,.7-.51.06-.92.42.16,0,.37.69.28.69,0,.62-.38.67-.77,1.12-.18.12-.36.63-.49.63,0,.41-.2.79-.2,1.19.08,0,0,.17.06.34.2,0,.2-.28.28-.28,0-.35.56.21.21.21-.29.44-.6.45-.77,1.05-.18,0-.33.17-.46.37A40.68,40.68,0,0,0,94.73,93.52a11,11,0,0,1,.32-2.36c.29.21.5.6.7,0-.5-.1-.38-.27-.21-.69a1.75,1.75,0,0,0,.9.23c.09-.18.17-.37.27-.55-.29-.22.1-.79.24-.51l.21-.43s0,0-.07,0c0-.25,0-.22.21-.35v0a40.39,40.39,0,0,0,4-17.55c0-.2,0-.4,0-.61-.07.29-.22.6-.42.67,0,.18-2.09,1.09-2,1.46-.37,0-1.66.37-1.9.84a3.16,3.16,0,0,0-1.4.56c-1.31,0-1.06-1.54-1.69-1.54Zm5.93-15.95H98.3l0,0c-.08,0-.41-.74-.28-.91a1.1,1.1,0,0,1,.25,0c-.13-.32-.28-.64-.42-1a2,2,0,0,1-1,.52c0,.12-.62,1.32,0,1.32a.14.14,0,0,0,0,.07,1.45,1.45,0,0,0,.12,2.89h.58c0,.26.18.49.69.61.16.67,1.36.91,1.54.2-.51,0-.34-.48-.3-.81h.41a1.46,1.46,0,1,0,0-2.91ZM95.6,75.73c.1,0,.77,0,.77-.13a7,7,0,0,0,2-.28c0,.9-.76,1.41-.63,2.31-.51,0-.29.51-.29.69-.32.2-.37.57-.77.77,0,.41-.91,1.08-1.18,1.42s-1.21,1.06-1.33,1.55c0-.11-1.67,1.77-1.27,1.77,0,.35-.48,3.14.14,3.14,0,.24.53,2.58.21,2.58,0,.75-.5,1.21-.5,1.81-.23.17-.58.26-.7.5-.43,0-.63.9-.84.9,0,1-.28,1.69-.28,2.79.08,0-.56,1.57-.56,1.67-.52.35-1.83,1.6-1.83,2.24l-1,1.47a8.77,8.77,0,0,0-2.38.56c-.45,0-1.62.35-1.9-.07,0-.45-.24-1-.28-1.61-.21,0-.25-.91-.49-.91,0-.19-1.34-2.86-1.12-2.86a4.8,4.8,0,0,0-.28-1.19c0-1-.71-1.76-.71-2.65-.2,0-.63-2-.42-2a21.22,21.22,0,0,1,.51-2.83,6.78,6.78,0,0,0-.3-2.9c-.12,0-.52-.66-.56-.83a2.13,2.13,0,0,1-.77-1.81,4.68,4.68,0,0,0,.42-2.51,3.09,3.09,0,0,0-1.75-.21c-.46-.91-3.5-.35-4.36-.35,0,.5-2.12-.09-2.31-.49a2.41,2.41,0,0,1-1.55-1.6,5.82,5.82,0,0,1-1.47-2.86c-.49-.25-.34-1.19-.07-1.19a4.92,4.92,0,0,0-.29-1.48c-.08-.3.29-.61.29-1a4.16,4.16,0,0,1,.57-2.46,11.53,11.53,0,0,0,.55-1c.29-.73.38,0,.78-.69.37-.19.59-.81,1-1.12.17-.22.17-.31,0-.49a4.12,4.12,0,0,0,.49-1.32c.55-.76.16-.41.7-.35.2-.21.53-.77.84-.77a.92.92,0,0,1,.77-.42c0,.42,1.15-.13,1.27-.13.19-.4,1.46-.84,1.75-.84,0-.48,2.49.13,2.88.07v-.21c.53.12,1.5,2.25,1.4,2.72a6.25,6.25,0,0,1,1.06,0c0,.46.85.57,1.24.59.54,0,2.12-.06,2.12-.79a.66.66,0,0,1,.72.58,1.09,1.09,0,0,1,0,.18c.47,0,3.28.11,3.09.7.41,0,.51.7.91.7-.08.48.49,1.74.91,1.74a2.19,2.19,0,0,0,.63,1.47,5.07,5.07,0,0,0,1.47,2.23c-.26.5.4.9.56,1.4,0,0,.15.73.35.83,0,.5,1,2.52,1.62,2.52,0,.24-.54.35.21.41ZM80.44,60.11c.11-.42.36-.1.58,0,.54.17.36,0,.76-.19,0,1.13-.66.27-1.34.21ZM79,58c.28,0,.36,1.28-.42,1.05,0-.32-.2-.91.21-.91.12.49.21.29.21-.14Zm-.35-.83c.33.14.47.09.42-.14.43.14-.05.44-.14.76C78.68,57.59,78.75,57.51,78.62,57.18ZM71.11,51c-.69-.17.71-.38.77-.55a.33.33,0,0,1-.33-.33.27.27,0,0,1,0-.12c.1-.24.27.29.51.17s.84-.45.56.36-.56,1.44-1.61,1.45c-.38-.38,0-.58.07-1Zm2.6-2.86c.57,0,.07.42-.06.42.1,0,0,.38,0,.49.52,0,.53-.33.91-.42-.08.47-.61.56-.09,1,.27.21.54.46.44.79.67,0,.76.64.63,1.39.37,0,.35,0,.35-.35.36.1.33.42,0,.42-.33.66-1.21.63-1.82.63,0-.51-.11-.54-.58-.4-.64.2-.14-.51-.13-.86.07,0,1.46.07.63-.21,0-.75-.21-1-.91-1,0-.51-.18-.48-.26-1-.12-.83.65.06.9-.85Zm-.21,4.54c0,.17-.35.31-.43.06.07,0,.1,0,.07-.06Zm-5.76-7.5H64.82a1.46,1.46,0,1,1,0-2.91h2.92a1.46,1.46,0,1,1,0,2.91Zm-17,25.78c.16,0,.35.06.35.21C50.87,71.13,50.6,71.33,50.73,70.92Zm-2.67.14c-.11.22-1.06.19-1.19-.07.35,0,.62.14,1,0,0-.19-.16-.35-.28-.56.38,0,.81.29,1.34.28,0-.32-.15.07,0-.35a1.69,1.69,0,0,1,.77.77,11,11,0,0,0-1.62-.07ZM45,69.39a2,2,0,0,1-1.27-.63c.35,0,.69.16.91-.21.89.09,1,.7,1.69.7.13.24.9.78.16.85A1.63,1.63,0,0,1,45,69.39Zm.56,2c-.26,0-.69.12-.49-.42.34,0,.51.19.49.42Zm.49-.07-.42.07c0-.32.35-.68.42-.07Zm2.59,3.07c0,.19,0,.21-.28.21a2.29,2.29,0,0,0,.07-.28l.22.07Zm-6.31-5.79.21.07c.09.35.28.17.49.07,0,.4-.94.52-.7-.14Z" transform="translate(-13.73 -24.75)"/></svg>