<svg width="18" height="24" viewBox="0 0 18 24" fill="none" xmlns="http://www.w3.org/2000/svg">
<path d="M12.5 0H11.812C11.4142 0 11.0326 0.158035 10.7513 0.43934C10.47 0.720644 10.312 1.10218 10.312 1.5C10.3168 1.67541 10.2865 1.85001 10.2227 2.01348C10.1589 2.17695 10.063 2.32598 9.94065 2.45176C9.8183 2.57754 9.67197 2.67752 9.51032 2.74579C9.34867 2.81406 9.17498 2.84923 8.9995 2.84923C8.82403 2.84923 8.65033 2.81406 8.48868 2.74579C8.32703 2.67752 8.1807 2.57754 8.05835 2.45176C7.93599 2.32598 7.84009 2.17695 7.77631 2.01348C7.71252 1.85001 7.68216 1.67541 7.687 1.5C7.687 1.10218 7.52896 0.720644 7.24766 0.43934C6.96636 0.158035 6.58483 0 6.187 0L5.5 0C4.0418 0.00158817 2.64377 0.581561 1.61267 1.61267C0.581561 2.64377 0.00158817 4.0418 0 5.5V20.5C0 21.4283 0.368749 22.3185 1.02513 22.9749C1.6815 23.6313 2.57174 24 3.5 24H6.187C6.58483 24 6.96636 23.842 7.24766 23.5607C7.52896 23.2794 7.687 22.8978 7.687 22.5C7.68216 22.3246 7.71252 22.15 7.77631 21.9865C7.84009 21.823 7.93599 21.674 8.05835 21.5482C8.1807 21.4225 8.32703 21.3225 8.48868 21.2542C8.65033 21.1859 8.82403 21.1508 8.9995 21.1508C9.17498 21.1508 9.34867 21.1859 9.51032 21.2542C9.67197 21.3225 9.8183 21.4225 9.94065 21.5482C10.063 21.674 10.1589 21.823 10.2227 21.9865C10.2865 22.15 10.3168 22.3246 10.312 22.5C10.312 22.8978 10.47 23.2794 10.7513 23.5607C11.0326 23.842 11.4142 24 11.812 24H14.5C15.4283 24 16.3185 23.6313 16.9749 22.9749C17.6313 22.3185 18 21.4283 18 20.5V5.5C17.9984 4.0418 17.4184 2.64377 16.3873 1.61267C15.3562 0.581561 13.9582 0.00158817 12.5 0V0ZM14.5 21H13.05C12.7519 20.1644 12.2027 19.4415 11.4776 18.9304C10.7526 18.4192 9.88714 18.1448 9 18.1448C8.11286 18.1448 7.24744 18.4192 6.52237 18.9304C5.7973 19.4415 5.24808 20.1644 4.95 21H3.5C3.36739 21 3.24021 20.9473 3.14645 20.8536C3.05268 20.7598 3 20.6326 3 20.5V16H3.5C3.89782 16 4.27936 15.842 4.56066 15.5607C4.84196 15.2794 5 14.8978 5 14.5C5 14.1022 4.84196 13.7206 4.56066 13.4393C4.27936 13.158 3.89782 13 3.5 13H3V5.5C3.00009 4.92891 3.1957 4.37507 3.55429 3.9306C3.91289 3.48614 4.41285 3.17784 4.971 3.057C5.27731 3.87843 5.82737 4.58661 6.54748 5.08663C7.26758 5.58665 8.12332 5.85462 9 5.85462C9.87668 5.85462 10.7324 5.58665 11.4525 5.08663C12.1726 4.58661 12.7227 3.87843 13.029 3.057C13.5872 3.17784 14.0871 3.48614 14.4457 3.9306C14.8043 4.37507 14.9999 4.92891 15 5.5V13H14.5C14.1022 13 13.7206 13.158 13.4393 13.4393C13.158 13.7206 13 14.1022 13 14.5C13 14.8978 13.158 15.2794 13.4393 15.5607C13.7206 15.842 14.1022 16 14.5 16H15V20.5C15 20.6326 14.9473 20.7598 14.8536 20.8536C14.7598 20.9473 14.6326 21 14.5 21Z" fill="white"/>
</svg>
