<svg id="Layer_1" data-name="Layer 1" xmlns="http://www.w3.org/2000/svg" viewBox="0 0 143.69 143.69"><defs><style>.cls-1{fill:#fff;}</style></defs><path id="Icon_metro-earth2" data-name="Icon metro-earth2" class="cls-1" d="M71.85,143.69a71.85,71.85,0,1,1,71.84-71.84A71.84,71.84,0,0,1,71.85,143.69Zm58.23-77.87a.42.42,0,0,0,.22-.31,2.19,2.19,0,0,0,.69,1.26s0,0,0,.1l.1,0a2.18,2.18,0,0,0,1.37.51,2.21,2.21,0,0,0,1.87-1.08l.1.1c0-.07,0-.14,0-.21a2.32,2.32,0,0,0,.3-1.06,2.25,2.25,0,0,0-2.25-2.24,2.22,2.22,0,0,0-1.85,1s0-.07-.05,0a2.05,2.05,0,0,0-.34-1.07v2.32A2.72,2.72,0,0,1,130.08,65.82ZM26.91,65.15c0-.68-1.55-1.83-1.95-1.83,0-.12-.63-1.5-.86-1.5,0-.47-1.64-2.57-1.9-1.65-.18.59,1.25,1.39,1.25,2.08.26,0,1.38,2.11,1.6,2.48,2.43,4.11-1.82,1.3-1.82-.44a5.71,5.71,0,0,1-1.4-2.91,8.8,8.8,0,0,1-1.18-2.25c0-1.31-.73-1.94-2.16-1.94-.07-.13-1.28-1.83-1.3-1.83a4.86,4.86,0,0,0-1.51-2.47c0-1.12-.58-2.5-.32-3.66a12.46,12.46,0,0,0-.48-3.84A62.67,62.67,0,0,0,45.1,128.7c1.69.79,3.42,1.5,5.17,2.14,0-2.23.2-4.89.7-4.89,0-.34.29-1.73.54-1.73a28.05,28.05,0,0,0,0-2.9c-.32-.65.43-1.47.65-2.48,1.24-.62.36-6.88,1.3-6.88,0-3.13.7-4.95.21-7.86.24,0-1.41-1.75-1.4-1.72-1.58,0-2.69-2.54-2.69-3.65A6.9,6.9,0,0,1,49,96.9c.37,0-2.26-3.85-2.26-3.77-1.4-.77.07-1.85.21-3.12-1.21-.4,0-3.66.54-3.66a1,1,0,0,1,.65-.85c.27,1.07,1.52-.54.54-.54,0-.71-.08-2.22,0-2.58,0-1.1-1-3.24-1.72-1-.81-.4-2.85-.33-3-1.61.12-.63-1.17-1.93-1.62-2.15.42-1.1-2.19-2.58-3.13-2.58,0-.24-.5-.13-.65-.44-1,0-1.18-1.29-2.27-1.29-1.25,0-2.51-.86-3.67-.86-.38-.76-2.17-.46-2.59-1.29-.93,0-1.3-1.78-1.33-2.43,0-.81-.68-3.6-1.81-3.6Zm91-36a.19.19,0,0,1,0,.1c.06,0,.15.07.22.1Zm1.36,1.48a1.38,1.38,0,0,1,.23.76c.16,0,.24-.08.36-.11C119.62,31,119.41,30.83,119.22,30.6Zm3.9,20.46c.07-1.94-1.62-1.62-2.16-2.69-.55,0-.75-.44-1.51-.44a1,1,0,0,0-1.16.35c-1.15.44-.46-.56-1.32-.56,0-1.11-.4-1.41-1.62-1.29-.7,1.58-1.78,2.53-1.62,4.31.52.11.43.23.32.75.69,0,4.86-.22,4.86-.65.14,0,.86,1.49.86.22.58,0,.89,1.36,2.27,1,0,.28,2.31-1,1.07-1ZM123.34,74c.08-.4-.2-.57-.44-1,.62,0-1.94-4.74-1.94-5.48a4.37,4.37,0,0,1-1-2,5.15,5.15,0,0,1-1.29-2.15,7.75,7.75,0,0,1-2-2.69c.77.09,1.94.24,1.94-.75-.52,0-.6-.64-.1-.64-.16-.66.35-1.14.46-1.66a11.48,11.48,0,0,0,.4-2.33,3.53,3.53,0,0,0-1.5.33c0,.43-1.32-.11-1.51-.11-.29-.57-2.34.73-2.91-.43-.93-.84-.68-1.49-1-2.67-.16-.6-1-.64-1.48-.74-1.4-.27-.39,1.67-.46,2.12.86,0-.55,1.07-.55,1.61-1.45-.31-1-1.93-1.82-2.37-.26-.43-.06-.75-.66-.75,0-.57.31-1.62-.32-1.83,0-.28-1.22-.39-1.4-.75-.77,0-2.57-2.92-3.12-1.94-.35.63.29.78.42,1.3,1.12-.22,1,1.84,2.38,1.61a3.55,3.55,0,0,0,.1.86c1-.24.89.75,1.4.75-.37.49-1.54-.78-1.22.29a1.46,1.46,0,0,1-.72,1.75c0-.67-.06-2.47-.76-2.47-.47-1-1.89-.72-2.48-1.61-.49,0-.68-1.51-1.51-1.61a1.75,1.75,0,0,1-1,.43c-.45.91-3,.09-3,.21s-1.43,3.42-1.51,3.87c-.16,1-.94,1-1.17,1.9-.12.46-2.93.25-2.93.58A2.86,2.86,0,0,1,88.36,53a20.94,20.94,0,0,1,.43-3.87c.25.06.31.15.44.43.75-.28,2.48.18,2.48-.65.73,0,.94.31.65.86.68.13,1.84.3,1.84-.65-.4,0-.44,0-.44-.43,1.3-1.34-1-2.55-1-3.22-.46-.15-1.39-1.15-.72-.77s2.61.95,1.8-.42a.13.13,0,0,0,.1-.1c.23.17,1.19,1.16,1.19.22.27,0,1.29-.65.44-.65.08-.48.06-.89.09-1.18,1.38.73.61-.5,1.31-1,0,.9.73-.43,1.18-.43.53-.79,1.76-.18,2-1.08-.66-.21-.54-1.86-.54-2.47.8.13,1.68-1.07,1.8-.24.05.32.09,1.2.25,1.32,1.18.62.87-.36.87-1-.4,0-.92-1.38-1-2-.32,0-.84.18-1,.43-1.18,0-2-.43-2.91-.43a16.76,16.76,0,0,1-1.08-1.4c-.66-1.12.66-.8.86-.85,0-1.07,4.45-.88,4.65-2.58-1.47,0,1.5-2.48,1.5-2.47,1-.85,1.52-1.59,2.76-1.68.52,0,6.31-1.63,6.31-.91l1.81,0a62.6,62.6,0,0,0-84.38-1,1.38,1.38,0,0,1,.17.59c.59,0,1.43-.42,1.62.33a3.56,3.56,0,0,1-.86-.11c.21,1.66-.73.65-1.51.65a2.07,2.07,0,0,0-.71-.28c-.24.22-.49.43-.73.66,0,.07,0,.07,0,.15.25,0,.12.4.84.63a15.72,15.72,0,0,0,2.62.58,7.59,7.59,0,0,0,1.72-.13c0-.09,1.49-.75.44-.75.15-.59-.12-.74-.76-.75.06-.63,1.55-.21,2.16-.21.47-.79,0-.7.43-1.41.49-.87,1.08-.12,1.4-.95a1.5,1.5,0,0,1,1.09,1.05c.39.33,2.38,3.25,2.38,1.18.7.24,1.06,1.57,1.07,2.27,1.29-.19,1.4-1.16,1.4-2.16.3,0-.11-.48-.11-.65.48-.17,1.09.46,1.09-.21.2,0,.21.21.21.43.67.13,1.1-.07,1.51.07s.14,1.57,0,2.09-1.41.66-1.41,1C42.86,30,46,30.51,46.44,31.15a5.45,5.45,0,0,1-1.4-.21c-.7,0-2.4.74-3,.21.88,0,1.17-1,1.3-2a1.54,1.54,0,0,0-2,1v0c-.38,1.32-1.25-.05-1.69.84-.18,0-1.73.78-1.73.53-1.75.25-1.3,1.74-1.3,3.34.7.42,2.11,1.61,2.05,2.26,1.57.28,2.15.44,3.56.64a1.7,1.7,0,0,0,.87.54c0,.92.84.76,1.62.76,0-1.18,1.37,1,1.51,1.4-.19,0,.32,1.21.43,1.61-.22-.07-.29,0-.22.22.68.25,1.77.18,1.94-.54-.65,0-.43-.75-.43-1.18a.8.8,0,0,1,.11-1.5c0,.61,2.22-.39,1-.86a2.43,2.43,0,0,0,0-2.34c-.32-.38-.72,0-.88-.57.85-.21.23-1.83.22-2.58.27-.1,1,.17,1,0,.83,0,2.21,1,2.7-.22,1.39.63.28,1.24,1.73.75a6.09,6.09,0,0,0,1.84,1.94c0,.08,0,.54.32.54,0,.34-.22-.2-.22.43.2,0,1.3.22,1.3-.22.7,0,1.18-.85,1.18-1.5.44-.28,1.2,2.37,1.73,2.37.38.6,1.62,1.48,1.62,2,.26.27.53.2.53,1,.33,0,1-1.29,1-.1a2,2,0,0,1,1.3,1.18c-.78,0,0,.75-.44.75,0,.75-1.67.15-2.05.11-.51,2.31-3.63.65-5.52,1.25a6.43,6.43,0,0,0-3,3.59c1.2,0,1.74-1,2.81-1.4.87,0,1-.53,1.84-.75,0,.22.21.1.21.32-1.53,0-.6,1-.15,1.72a1.82,1.82,0,0,0,1,.8,3.92,3.92,0,0,0-.36.81h0c-.3.1-.87.31-1,.54-1.74.19-.88.07-.76-.34.06.15.69,0,.66,0-.1-.53-.26-.45-.11-.75-.94,0-1.4.43-2.16.43-.12.25-.78.86-1.08.86a5.14,5.14,0,0,1-1.3,2.26c0-.18-1.53,1-1.4,1-.34.55-.71.54-.86,1.4a7,7,0,0,0-.54,1.72c-.67.45-.92,2.26-2,2.26-.71,1.38-2,1.2-2,3,.42.44.58,2.34.72,2.95s.41,1.55-.6,1.57c-.08-.11-.79-1.18-.66-1.18a6.71,6.71,0,0,0-.86-2.32c-.42-.6-1.21.1-1.84-.16-.26-.53-2-.65-2.69-.65.1.4.4.53.43,1a2.4,2.4,0,0,1-1.38.38c-.94-.13-.83-.86-1.86-.76a3.14,3.14,0,0,0-2.81,3.18,9.73,9.73,0,0,0,0,3.23c0,.91.76,1.57.76,2.26.73,0,1.55,1.61,2.27,1.61.08.57-.36.66.86.65,0-.06.66-.42.75-.86-.84-.21,0-1.29.54-1.5,0,.77,1.08-.26,1.08-.32L42,69c0-.87.81.09.22.44-.59,0-.54,1-.87,1-.14.69-.41,1.29-.57,2-.21.83.47.92.25,1.7a14,14,0,0,0,2.59,0,.74.74,0,0,0-.11-.44c1.25,0,.11,2.37.87,2.37,0,.89.43,1.59.43,2.15a1.42,1.42,0,0,1,.75,1.61c.72.1,2.27.28,2.27-.64,1.09,0,1.17.74,1.08,1.5,2.18,0,.82-2.15,1.72-2.15.09-.36.24-.42.45-.19.44.24.78-.44,1.14-.66a3.1,3.1,0,0,1,.57-.3c.31.18.34.13.47.33A3.3,3.3,0,0,0,55,77c.78.09.53,1.76,2,1.86a5.17,5.17,0,0,0,2.44-.14c.13-.08.59.29.64.45.48,0,.45.43.65.42a.18.18,0,0,0,.22.1c.07.18.45.24.65.75,0,.46,1,.55,1,.86.7.35-.23.44.84.76a7.61,7.61,0,0,0,1.76.53c.2-.77.86.1,1.19.1.17.35.26.08.43.43,1,.83.34.51.75,1.4.48.31.63,1.41.76,2-.38,0-.11,1.48-.11,1.62-.46,0,1.2.88,1.2-.22.68.11,1.13.86,1.61.86-.28.65.76,1.14.76.11,1,.1.75,1.63.65,2.15.76,0,1-.42,1.62-.5a4.37,4.37,0,0,1,2.37-.77,4.49,4.49,0,0,1,4.49,4.48h0A4.44,4.44,0,0,1,77,98.65a6.53,6.53,0,0,1-.56.61,23.07,23.07,0,0,1-.12,2.37c0,.43-.32,2.8-.64,2.8,0,1.21-.8,1.43-1.08,2.58-.66.48-2.43,1.29-2.7,1.83-.51,0-.89.43-1.4.43-.07.15-1.17,1.18-1,1.18-.08.77.06,2.56-.35,3.06-.28.34-.68.3-.5.82-.61,0,0,.43-.92.43a2.16,2.16,0,0,0-1.71,1.59,2.37,2.37,0,0,1-1,2.07c0,.31-1.4.4-1.4,1.19.13,0,0,1.46,0,1.61A2.58,2.58,0,0,0,62,122c-1.41,0-1.24.14-2.15.75,0,.19-.13.86-.32.86,0,1.09-.78.1-1.41.65.25,0,.56,1.08.43,1.08,0,.94-.59,1-1.18,1.72-.29.19-.56,1-.76,1,0,.64-.32,1.22-.32,1.83.14,0,0,.27.1.53.3-.09.31-.43.43-.43,0-.54.86.32.33.32-.45.67-.93.69-1.19,1.62-.27,0-.5.26-.7.56A62.5,62.5,0,0,0,124.59,106a17.14,17.14,0,0,1,.49-3.63c.44.32.77.93,1.08,0-.78-.15-.59-.42-.33-1.07a2.69,2.69,0,0,0,1.38.36c.15-.27.27-.57.42-.85-.44-.34.16-1.23.37-.79.12-.22.21-.44.32-.66,0,0,0,0-.11,0,0-.39.07-.34.33-.54a.22.22,0,0,0,0,.08,62.57,62.57,0,0,0,6.18-27c0-.32,0-.63,0-1-.12.44-.34.92-.65,1,0,.28-3.21,1.68-3,2.26-.57,0-2.56.56-2.92,1.29a4.85,4.85,0,0,0-2.16.86c-2,0-1.64-2.38-2.6-2.38Zm9.13-24.58h-2.39l-.05,0c-.12,0-.63-1.15-.43-1.4l.38,0c-.2-.49-.42-1-.64-1.47a3.1,3.1,0,0,1-1.58.8c0,.18-1,2,0,2a.17.17,0,0,0,0,.1,2.23,2.23,0,0,0,.18,4.46h.89c0,.4.27.76,1.06.93.25,1,2.1,1.41,2.37.32-.78,0-.52-.75-.45-1.25h.63a2.25,2.25,0,0,0,0-4.49Zm-6.55,29.2c.16,0,1.2,0,1.2-.2a11.05,11.05,0,0,0,3.13-.43c0,1.39-1.17,2.17-1,3.55-.77,0-.43.8-.43,1.07-.5.31-.58.88-1.19,1.19,0,.62-1.4,1.65-1.81,2.19s-1.87,1.63-2.06,2.39c0-.18-2.57,2.72-2,2.72,0,.54-.74,4.84.22,4.84,0,.38.81,4,.32,4,0,1.15-.76,1.86-.76,2.79-.37.25-.89.39-1.08.76-.66,0-1,1.4-1.29,1.4,0,1.5-.44,2.6-.44,4.3.13,0-.86,2.42-.86,2.58-.79.53-2.8,2.45-2.8,3.44,0,0-1.4,2-1.62,2.26-.42,0-3.67.61-3.67.87-.7,0-2.48.54-2.91-.11,0-.69-.38-1.55-.44-2.48-.33,0-.38-1.4-.75-1.4,0-.3-2.06-4.42-1.73-4.42a7.1,7.1,0,0,0-.43-1.82c0-1.49-1.08-2.72-1.08-4.09-.32,0-1-3-.65-3,0-1.58.55-2.61.78-4.37a10.24,10.24,0,0,0-.46-4.46c-.18,0-.8-1-.86-1.29a3.25,3.25,0,0,1-1.19-2.78c.57-.65.79-3.07.65-3.87a4.81,4.81,0,0,0-2.7-.33c-.7-1.4-5.37-.53-6.7-.53,0,.76-3.25-.15-3.56-.75-.79,0-2.37-1.69-2.37-2.48a8.81,8.81,0,0,1-2.26-4.41c-.76-.38-.53-1.83-.12-1.83a7.5,7.5,0,0,0-.44-2.29c-.13-.45.44-.94.44-1.48A6.53,6.53,0,0,1,84,66.31a14.43,14.43,0,0,0,.85-1.6c.45-1.13.58-.06,1.19-1.06.58-.29.92-1.25,1.51-1.72.26-.35.27-.49,0-.76a6.44,6.44,0,0,0,.76-2c.84-1.17.24-.63,1.07-.53.31-.34.82-1.19,1.3-1.19a1.36,1.36,0,0,1,1.19-.65c0,.65,1.76-.21,1.94-.21.3-.6,2.24-1.29,2.7-1.29,0-.74,3.83.21,4.43.11V55c.82.2,2.31,3.48,2.15,4.2a8.88,8.88,0,0,1,1.63,0c0,.7,1.31.87,1.9.9.83,0,3.27-.08,3.27-1.22a1,1,0,0,1,1.1.91.81.81,0,0,1,0,.27c.73.09,5,.17,4.75,1.08.63,0,.79,1.08,1.4,1.08-.13.74.75,2.69,1.4,2.69a3.33,3.33,0,0,0,1,2.25,7.91,7.91,0,0,0,2.26,3.45c-.4.76.62,1.39.87,2.15-.06,0,.22,1.13.53,1.29,0,.76,1.61,3.88,2.49,3.88.06.37-.82.54.32.63ZM102.61,54.5c.17-.64.55-.14.9,0,.83.26.54,0,1.16-.3,0,1.75-1,.42-2.06.32Zm-2.27-3.23c.44,0,.56,2-.64,1.61,0-.49-.31-1.4.32-1.4.19.77.32.46.32-.21ZM99.81,50c.5.22.72.15.65-.21.65.21-.09.68-.22,1.18C99.9,50.62,100,50.5,99.81,50ZM88.25,40.4c-1.06-.27,1.1-.58,1.19-.85a.5.5,0,0,1-.5-.5.63.63,0,0,1,0-.19c.16-.37.43.44.8.26s1.29-.7.85.56-.86,2.21-2.47,2.23c-.58-.58,0-.89.1-1.51Zm4-4.41c.88,0,.11.65-.08.65.15.06,0,.58,0,.75.81,0,.82-.5,1.4-.65-.12.73-.93.87-.14,1.49.42.32.85.71.68,1.21,1,0,1.18,1,1,2.15.57,0,.55,0,.55-.54.55.15.51.65,0,.65-.52,1-1.86,1-2.81,1,0-.78-.16-.83-.88-.61-1,.3-.22-.78-.2-1.32.11,0,2.24.1,1-.33-.07-1.16-.33-1.5-1.4-1.5,0-.79-.28-.73-.41-1.6-.18-1.28,1,.09,1.38-1.3Zm-.32,7c0,.26-.54.47-.65.1.1,0,.14,0,.1-.1ZM83.07,31.43H78.58a2.25,2.25,0,0,1,0-4.49h4.49a2.25,2.25,0,1,1,0,4.49ZM56.91,71.17c.25,0,.54.1.54.32C57.13,71.5,56.71,71.81,56.91,71.17Zm-4.1.22c-.18.34-1.63.28-1.84-.11.54,0,1,.22,1.51,0,0-.3-.24-.53-.43-.86.59,0,1.25.45,2.05.43,0-.5-.22.11,0-.54a2.57,2.57,0,0,1,1.19,1.18,17.09,17.09,0,0,0-2.48-.1Zm-4.75-2.58a3,3,0,0,1-1.94-1c.53,0,1.06.24,1.4-.32,1.37.14,1.49,1.08,2.59,1.08.21.36,1.38,1.2.25,1.31a2.48,2.48,0,0,1-2.29-1.1Zm.86,3c-.4,0-1.06.18-.75-.65.53.07.79.29.76.65Zm.76-.11-.65.11c.07-.5.54-1,.65-.1Zm4,4.73c-.09.3-.07.32-.43.32,0-.14.07-.28.1-.43l.33.11ZM44,67.52l.32.1c.14.54.43.27.75.11,0,.63-1.44.81-1.07-.21Z" transform="translate(0 0)"/></svg>