<svg id="Layer_1" data-name="Layer 1" xmlns="http://www.w3.org/2000/svg" xmlns:xlink="http://www.w3.org/1999/xlink" viewBox="0 0 1332.61 172.34"><defs><style>.cls-1{fill:none;}.cls-2,.cls-7,.cls-8,.cls-9{isolation:isolate;}.cls-2,.cls-7{font-size:94px;}.cls-2,.cls-9{fill:#fff;}.cls-2,.cls-7,.cls-9{font-family:Syne-Bold, Syne;font-weight:700;}.cls-2{letter-spacing:-0.05em;}.cls-3{letter-spacing:0em;}.cls-4{letter-spacing:-0.02em;}.cls-5{letter-spacing:-0.02em;}.cls-6{letter-spacing:0em;}.cls-7{fill:#226a0c;}.cls-9{font-size:55px;}.cls-10{letter-spacing:-0.01em;}.cls-11{letter-spacing:-0.02em;}.cls-12{letter-spacing:0em;}.cls-13{clip-path:url(#clip-path);}.cls-14{fill:#dd2719;}</style><clipPath id="clip-path" transform="translate(-19.98 -11.59)"><rect class="cls-1" x="765.81" y="134.86" width="206.74" height="40.22"/></clipPath></defs><text class="cls-2" transform="translate(0 77.41)">T<tspan class="cls-3" x="62.98" y="0">hed</tspan><tspan class="cls-4" x="262.63" y="0">e</tspan><tspan class="cls-3" x="324.49" y="0">vil</tspan><tspan class="cls-5" x="434.09" y="0">w</tspan><tspan class="cls-6" x="524.71" y="0">ears</tspan></text><text class="cls-7" transform="translate(746.15 77.41)">responsibly</text><g id="Curated_by" data-name="Curated by" class="cls-8"><text class="cls-9" transform="translate(380.04 160.41)">Cura<tspan class="cls-10" x="148.06" y="0">t</tspan><tspan x="171.49" y="0">ed </tspan><tspan class="cls-11" x="263.01" y="0">b</tspan><tspan class="cls-12" x="302.88" y="0">y</tspan></text></g><g id="Group_144" data-name="Group 144"><g class="cls-13"><g id="Group_143" data-name="Group 143"><path id="Path_8897" data-name="Path 8897" class="cls-14" d="M781.09,134.86c9.82,0,14.82,5.22,14.82,13.06s-5,13.07-14.82,13.07h-6.93v13.18h-8.35V134.86Zm-6.93,19.2H780c5.28,0,7.44-2.33,7.44-6.14s-2.16-6.13-7.44-6.13h-5.79Z" transform="translate(-19.98 -11.59)"/><path id="Path_8898" data-name="Path 8898" class="cls-14" d="M805.91,148.49a9.83,9.83,0,0,1,8-3.86c6.47,0,10.62,4,10.62,11.81v17.73h-8V157.24c0-4.37-1.94-6.36-5.06-6.36-3.29,0-5.68,2.55-5.68,7.84v15.45h-7.95V134.86h7.95v13.63Z" transform="translate(-19.98 -11.59)"/><path id="Path_8899" data-name="Path 8899" class="cls-14" d="M829,163V145.31h8v16.93c0,4.37,1.93,6.36,5,6.36,3.3,0,5.68-2.61,5.68-7.84V145.31h8v28.86h-7.44v-3.64h-.11a10.27,10.27,0,0,1-8.46,4.32c-6.48,0-10.63-4-10.63-11.82" transform="translate(-19.98 -11.59)"/><path id="Path_8900" data-name="Path 8900" class="cls-14" d="M868.78,148.78a9.6,9.6,0,0,1,8.18-4.21c7.22,0,11.87,6,11.87,15.17s-4.71,15.17-12,15.17a9.51,9.51,0,0,1-8.29-4.55h-.12v3.81h-7.72V134.86h7.95v13.92Zm-.51,11c0,5.73,2.44,9.09,6,9.09,3.81,0,6.25-3.58,6.25-9.09s-2.44-9.09-6.25-9.09c-3.58,0-6,3.35-6,9.09" transform="translate(-19.98 -11.59)"/><path id="Path_8901" data-name="Path 8901" class="cls-14" d="M900.52,148.78a9.57,9.57,0,0,1,8.18-4.21c7.21,0,11.87,6,11.87,15.17s-4.71,15.17-12,15.17a9.53,9.53,0,0,1-8.3-4.55h-.11v3.81h-7.73V134.86h8v13.92Zm-.51,11c0,5.73,2.44,9.09,6,9.09,3.8,0,6.25-3.58,6.25-9.09s-2.44-9.09-6.25-9.09c-3.58,0-6,3.35-6,9.09" transform="translate(-19.98 -11.59)"/><path id="Path_8902" data-name="Path 8902" class="cls-14" d="M942.64,165.42h8.12c-1.13,5.28-6.13,9.66-13.8,9.66-9.09,0-14.37-6.37-14.37-15.57,0-8.52,5.28-15.11,14.32-15.11,6.64,0,11.53,3.75,13.35,9.6a23.94,23.94,0,0,1,.9,7.39H930.43c.23,6,3.12,8.06,6.53,8.06,3.18,0,5.28-1.7,5.68-4m-12-9h12.61c-.51-4.37-3.13-6.36-6.3-6.36s-5.68,2-6.31,6.36" transform="translate(-19.98 -11.59)"/><path id="Path_8903" data-name="Path 8903" class="cls-14" d="M972.55,145.2v6.87a14,14,0,0,0-2.5-.29c-4.89,0-7.5,3.07-7.5,8.75v13.63H954.6V145.31h7.32v4.09H962a8.68,8.68,0,0,1,7.9-4.55,10.45,10.45,0,0,1,2.61.35" transform="translate(-19.98 -11.59)"/></g></g></g></svg>